<svg width="200" height="29" viewBox="0 0 200 29" fill="none" xmlns="http://www.w3.org/2000/svg">
<rect y="2" width="200" height="26" fill="#273C99"/>
<path d="M63.7056 23H53.7446V22.3286H54.0254C54.7822 22.3286 55.3234 22.2269 55.6489 22.0234C55.9826 21.8118 56.182 21.5392 56.2471 21.2056C56.3122 20.8638 56.3447 20.3185 56.3447 19.5698V8.75439C56.3447 8.12777 56.2918 7.65983 56.186 7.35059C56.0884 7.0332 55.8605 6.80534 55.5024 6.66699C55.1444 6.52051 54.5584 6.44727 53.7446 6.44727V5.77588H63.3027C64.1491 5.77588 64.9263 5.88981 65.6343 6.11768C66.3423 6.3374 66.9404 6.64665 67.4287 7.04541C67.917 7.43604 68.2954 7.89583 68.564 8.4248C68.8407 8.95378 68.979 9.52751 68.979 10.146C68.979 10.8133 68.8081 11.4277 68.4663 11.9893C68.1245 12.5426 67.6037 13.0106 66.9038 13.3931C66.2039 13.7674 65.3535 14.0278 64.3525 14.1743C65.9964 14.394 67.2578 14.9067 68.1367 15.7124C69.0156 16.5099 69.4551 17.5068 69.4551 18.7031C69.4551 19.3216 69.3208 19.8953 69.0522 20.4243C68.7837 20.9451 68.3971 21.4009 67.8926 21.7915C67.388 22.174 66.7777 22.471 66.0615 22.6826C65.3454 22.8942 64.5601 23 63.7056 23ZM57.5288 20.3267V8.0708C57.5288 7.51742 57.4189 7.11051 57.1992 6.8501C56.9795 6.58154 56.5726 6.44727 55.9785 6.44727H55.7222C56.1128 6.5612 56.3813 6.75651 56.5278 7.0332C56.6743 7.30176 56.7476 7.74121 56.7476 8.35156V20.3999C56.7476 21.0184 56.6662 21.4578 56.5034 21.7183C56.3488 21.9787 56.0884 22.1821 55.7222 22.3286H56.0762C56.7109 22.3286 57.1097 22.1414 57.2725 21.7671C57.4434 21.3846 57.5288 20.9045 57.5288 20.3267ZM59.3965 13.7959H61.6792C62.7778 13.7959 63.5835 13.6657 64.0962 13.4053C64.5682 13.1611 64.9466 12.7502 65.2314 12.1724C65.5244 11.5864 65.6709 10.9272 65.6709 10.1948C65.6709 9.60889 65.5773 9.06364 65.3901 8.55908C65.2111 8.04639 64.9548 7.62728 64.6211 7.30176C64.2712 6.93555 63.8846 6.70361 63.4614 6.60596C63.0464 6.50016 62.4849 6.44727 61.7769 6.44727C60.8491 6.44727 60.2184 6.58968 59.8848 6.87451C59.5592 7.15934 59.3965 7.65169 59.3965 8.35156V13.7959ZM59.3965 14.4795V20.4243C59.3965 20.8394 59.4453 21.1689 59.543 21.4131C59.6406 21.6491 59.8034 21.8403 60.0312 21.9868C60.2673 22.1252 60.5562 22.2188 60.8979 22.2676C61.2397 22.3083 61.7077 22.3286 62.3018 22.3286C63.14 22.3286 63.8317 22.1821 64.377 21.8892C64.9303 21.5881 65.3413 21.1567 65.6099 20.5952C65.8866 20.0256 66.0249 19.3338 66.0249 18.52C66.0249 17.6981 65.8703 16.986 65.561 16.3838C65.2518 15.7734 64.8083 15.3055 64.2305 14.98C63.6608 14.6463 62.9772 14.4795 62.1797 14.4795H59.3965ZM63.9253 14.5039C64.7391 14.8132 65.3576 15.2933 65.7808 15.9443C66.2121 16.5954 66.4277 17.4539 66.4277 18.52C66.4277 20.5545 65.6099 21.8566 63.9741 22.4263C65.0239 22.3042 65.8174 21.8973 66.3545 21.2056C66.8997 20.5057 67.1724 19.5535 67.1724 18.3491C67.1724 17.2342 66.8835 16.335 66.3057 15.6514C65.736 14.9596 64.9425 14.5771 63.9253 14.5039ZM64.0718 13.7959C65.9272 13.3158 66.855 12.091 66.855 10.1216C66.855 9.47868 66.7492 8.89274 66.5376 8.36377C66.326 7.82666 66.0046 7.38721 65.5732 7.04541C65.1501 6.70361 64.6252 6.50423 63.9985 6.44727C64.6659 6.72396 65.1785 7.19596 65.5366 7.86328C65.8947 8.52246 66.0737 9.31999 66.0737 10.2559C66.0737 11.9648 65.4064 13.1449 64.0718 13.7959ZM80.6367 19.9727L81.125 20.3511C80.7588 21.0347 80.3234 21.5962 79.8188 22.0356C79.3143 22.4751 78.7568 22.8006 78.1465 23.0122C77.5443 23.2238 76.9136 23.3296 76.2544 23.3296C75.3592 23.3296 74.5251 23.1139 73.752 22.6826C72.987 22.2513 72.3807 21.6287 71.9331 20.8149C71.4855 20.0011 71.2617 19.0775 71.2617 18.0439C71.2617 17.2301 71.396 16.4652 71.6646 15.749C71.9412 15.0329 72.3197 14.4022 72.7998 13.8569C73.2881 13.3117 73.8496 12.8885 74.4844 12.5874C75.1273 12.2782 75.8109 12.1235 76.5352 12.1235C77.2676 12.1235 77.9634 12.2782 78.6226 12.5874C79.2899 12.8885 79.8188 13.3076 80.2095 13.8447C80.4943 14.2354 80.6978 14.6382 80.8198 15.0532C80.95 15.4601 81.0518 15.9525 81.125 16.5303H73.752C73.7845 17.3766 73.9269 18.0928 74.1792 18.6787C74.4396 19.2646 74.7733 19.7367 75.1802 20.0947C75.5952 20.4528 76.0347 20.7091 76.4985 20.8638C76.9624 21.0184 77.4059 21.0957 77.8291 21.0957C78.8545 21.0957 79.7904 20.7214 80.6367 19.9727ZM78.4761 15.749H79.3306C79.3062 14.8376 79.119 14.1662 78.769 13.7349C78.4191 13.2954 77.8332 13.0024 77.0112 12.856C77.5321 13.092 77.9064 13.4012 78.1343 13.7837C78.3621 14.158 78.4761 14.7318 78.4761 15.5049V15.749ZM73.8252 15.749H78.0854V15.3462C78.0854 14.8742 78 14.4551 77.8291 14.0889C77.6582 13.7145 77.4222 13.4297 77.1211 13.2344C76.8281 13.0309 76.4904 12.9292 76.1079 12.9292C75.4894 12.9292 74.9645 13.2059 74.5332 13.7593C74.1019 14.3045 73.8659 14.9678 73.8252 15.749ZM73.9351 13.3442C72.4132 14.5487 71.6523 16.1274 71.6523 18.0806C71.6523 19.4966 72.104 20.6562 73.0073 21.5596C73.9188 22.4548 74.9686 22.9023 76.1567 22.9023C76.8485 22.9023 77.5402 22.764 78.2319 22.4873C78.9318 22.2025 79.5218 21.7834 80.002 21.23C79.5055 21.5474 78.9969 21.8078 78.4761 22.0112C77.9634 22.2065 77.349 22.3042 76.6328 22.3042C75.4202 22.3042 74.4071 21.881 73.5933 21.0347C72.7876 20.1883 72.3848 19.0856 72.3848 17.7266C72.3848 16.8639 72.519 16.0908 72.7876 15.4072C73.0562 14.7236 73.4386 14.036 73.9351 13.3442ZM89.6821 13.0513V12.3311H93.8813V13.0513C93.3768 13.2791 92.9577 13.5884 92.624 13.979C92.2904 14.3696 91.9608 14.9515 91.6353 15.7246L88.3394 23.3296H87.3628L83.7373 14.7969C83.4606 14.1458 83.1921 13.6942 82.9316 13.4419C82.6794 13.1896 82.3376 13.0594 81.9062 13.0513V12.3311H88.0342V13.0024H87.5825C87.2814 13.0024 87.0251 13.092 86.8135 13.271C86.61 13.4419 86.5083 13.6413 86.5083 13.8691C86.5083 14.0156 86.6426 14.4266 86.9111 15.1021L89.0107 20.0703L90.3657 16.9941C90.7645 16.0664 90.9639 15.3584 90.9639 14.8701C90.9639 14.4062 90.854 14.0197 90.6343 13.7104C90.4227 13.3931 90.1053 13.1733 89.6821 13.0513ZM92.5874 13.0024H90.5854C91.0737 13.3442 91.3179 13.9017 91.3179 14.6748C91.6841 13.9017 92.1073 13.3442 92.5874 13.0024ZM87.6069 22.8779L87.79 22.8535L88.0342 22.3774C88.0667 22.3449 88.083 22.235 88.083 22.0479C88.083 21.9258 87.9854 21.6694 87.79 21.2788L84.9824 14.626C84.7546 14.0726 84.5186 13.6657 84.2744 13.4053C84.0303 13.1367 83.7088 13.0024 83.3101 13.0024H83.0415C83.2694 13.1489 83.4647 13.3687 83.6274 13.6616C83.7902 13.9465 83.9367 14.2435 84.0669 14.5527L87.6069 22.8779ZM105.258 6.44727V5.77588H112.558V6.44727C112.013 6.52051 111.455 6.68327 110.886 6.93555C110.324 7.18783 109.767 7.51335 109.213 7.91211C108.66 8.30273 108.033 8.79915 107.333 9.40137L104.392 12.0015L110.861 20.0947C111.341 20.6969 111.724 21.1364 112.009 21.4131C112.294 21.6898 112.583 21.9014 112.875 22.0479C113.177 22.1862 113.522 22.2798 113.913 22.3286V23H105.71V22.3286C107.012 22.3286 107.663 22.0356 107.663 21.4497C107.663 21.2463 107.598 21.0387 107.468 20.8271C107.338 20.6074 107.163 20.3633 106.943 20.0947L102.109 14.0522L100.583 15.4194V20.0947C100.583 20.762 100.681 21.2707 100.876 21.6206C101.079 21.9705 101.442 22.174 101.962 22.231C102.231 22.2472 102.451 22.2676 102.622 22.292C102.801 22.3083 102.955 22.3205 103.085 22.3286V23H94.7603V22.3286H95.1387C95.8548 22.3286 96.3838 22.2432 96.7256 22.0723C97.0674 21.9014 97.2871 21.6572 97.3848 21.3398C97.4824 21.0143 97.5312 20.583 97.5312 20.0459V8.57129C97.5312 8.02604 97.4702 7.611 97.3481 7.32617C97.2261 7.0332 96.9657 6.81348 96.5669 6.66699C96.1763 6.52051 95.5741 6.44727 94.7603 6.44727V5.77588H103.085V6.44727H102.915C101.962 6.44727 101.336 6.59782 101.035 6.89893C100.734 7.20003 100.583 7.70866 100.583 8.4248V14.5039L105.539 10.0728C106.092 9.57633 106.507 9.14095 106.784 8.7666C107.069 8.38411 107.211 8.02197 107.211 7.68018C107.211 7.31396 107.081 7.01693 106.821 6.78906C106.569 6.5612 106.206 6.44727 105.734 6.44727H105.258ZM109.909 6.44727H107.041C107.423 6.76465 107.614 7.11458 107.614 7.49707C107.614 7.74121 107.553 7.99349 107.431 8.25391C107.985 7.74935 108.42 7.375 108.737 7.13086C109.055 6.87858 109.445 6.65072 109.909 6.44727ZM107.932 19.4722L102.988 13.271L102.438 13.7715L107.041 19.6309C107.39 20.054 107.647 20.404 107.81 20.6807C107.98 20.9574 108.066 21.23 108.066 21.4985C108.066 21.8485 107.867 22.1252 107.468 22.3286H107.785C108.111 22.3286 108.375 22.231 108.579 22.0356C108.782 21.8403 108.884 21.6125 108.884 21.3521C108.884 20.8882 108.566 20.2616 107.932 19.4722ZM98.7153 20.2046V8.66895C98.7153 7.77376 98.6177 7.17969 98.4224 6.88672C98.2271 6.58561 97.755 6.43913 97.0063 6.44727C97.4051 6.6263 97.6574 6.84603 97.7632 7.10645C97.8771 7.36686 97.9341 7.95687 97.9341 8.87646V20.3999C97.9341 21.0103 97.8649 21.4416 97.7266 21.6938C97.5964 21.9461 97.3237 22.1577 96.9087 22.3286H97.2139C97.7103 22.3286 98.0643 22.2513 98.2759 22.0967C98.4875 21.9339 98.6136 21.7183 98.6543 21.4497C98.695 21.173 98.7153 20.758 98.7153 20.2046ZM117.758 13.5518C117.758 13.5843 117.811 13.7023 117.917 13.9058C118.023 14.1092 118.076 14.3005 118.076 14.4795C118.076 14.8294 117.929 15.1427 117.636 15.4194C117.351 15.688 116.993 15.8223 116.562 15.8223C116.147 15.8223 115.817 15.7165 115.573 15.5049C115.329 15.2852 115.207 15.0329 115.207 14.748C115.207 14.3249 115.41 13.9098 115.817 13.5029C116.232 13.096 116.798 12.7664 117.514 12.5142C118.238 12.2537 119.036 12.1235 119.907 12.1235C120.542 12.1235 121.132 12.2334 121.677 12.4531C122.23 12.6729 122.67 13.0065 122.995 13.4541C123.321 13.9017 123.483 14.4429 123.483 15.0776V21.2788C123.483 21.7752 123.626 22.0234 123.911 22.0234C124.082 22.0234 124.289 21.8892 124.533 21.6206L124.985 22.1455C124.586 22.5443 124.216 22.8454 123.874 23.0488C123.54 23.2523 123.142 23.354 122.678 23.354C122.141 23.354 121.722 23.236 121.42 23C121.119 22.7559 120.908 22.3815 120.786 21.877C119.663 22.8454 118.552 23.3296 117.453 23.3296C116.672 23.3296 116.049 23.1261 115.585 22.7192C115.13 22.3123 114.902 21.7956 114.902 21.1689C114.902 20.6074 115.04 20.1313 115.317 19.7407C115.602 19.342 115.972 18.992 116.428 18.6909C116.892 18.3817 117.571 17.9951 118.466 17.5312C119.361 17.0592 120.098 16.6564 120.676 16.3228V14.4795C120.676 13.9261 120.55 13.507 120.297 13.2222C120.045 12.9373 119.667 12.7949 119.162 12.7949C118.723 12.7949 118.377 12.8763 118.125 13.0391C117.88 13.1937 117.758 13.3646 117.758 13.5518ZM121.079 15.2729V20.0947C121.079 21.0469 121.18 21.759 121.384 22.231C121.587 22.6948 121.986 22.9268 122.58 22.9268C122.849 22.9268 123.064 22.8942 123.227 22.8291C122.739 22.7559 122.393 22.5605 122.189 22.2432C121.986 21.9258 121.884 21.4294 121.884 20.7539V15.1509C121.884 14.3045 121.762 13.7227 121.518 13.4053C121.282 13.0798 120.871 12.8844 120.285 12.8193C120.603 12.9821 120.814 13.2181 120.92 13.5273C121.026 13.8366 121.079 14.4185 121.079 15.2729ZM120.676 21.0713V17.1528C119.634 17.7388 118.906 18.2677 118.491 18.7397C118.084 19.2118 117.88 19.7814 117.88 20.4487C117.88 20.8963 118.002 21.2422 118.247 21.4863C118.491 21.7305 118.776 21.8525 119.101 21.8525C119.614 21.8525 120.139 21.5921 120.676 21.0713ZM118.527 22.7559C117.787 22.7559 117.193 22.6053 116.745 22.3042C116.306 22.0031 116.086 21.5677 116.086 20.998C116.086 20.583 116.192 20.1924 116.403 19.8262C116.623 19.4518 116.949 19.0368 117.38 18.5811C116.721 18.9635 116.208 19.3542 115.842 19.7529C115.484 20.1517 115.305 20.6237 115.305 21.1689C115.305 21.6654 115.52 22.0804 115.952 22.4141C116.391 22.7396 116.867 22.9023 117.38 22.9023C117.876 22.9023 118.259 22.8535 118.527 22.7559ZM117.38 15.0532C117.087 15.0776 116.863 15.0207 116.708 14.8823C116.554 14.744 116.477 14.5812 116.477 14.394C116.477 14.1418 116.546 13.918 116.684 13.7227C116.822 13.5192 117.062 13.2303 117.404 12.856C116.826 13.1489 116.383 13.4419 116.074 13.7349C115.764 14.0278 115.61 14.3574 115.61 14.7236C115.61 14.8864 115.691 15.041 115.854 15.1875C116.025 15.3258 116.224 15.395 116.452 15.395C116.843 15.395 117.152 15.2811 117.38 15.0532ZM130.49 12.1235V14.0034C131.117 13.2954 131.597 12.8071 131.931 12.5386C132.264 12.2619 132.667 12.1235 133.139 12.1235C133.546 12.1235 133.888 12.27 134.165 12.563C134.449 12.8478 134.592 13.21 134.592 13.6494C134.592 14.1051 134.466 14.4876 134.213 14.7969C133.961 15.098 133.644 15.2485 133.261 15.2485C133.09 15.2485 132.903 15.216 132.7 15.1509C132.496 15.0858 132.325 15.0003 132.187 14.8945C132.106 14.8294 132.02 14.7603 131.931 14.687C131.841 14.6138 131.76 14.5568 131.687 14.5161C131.621 14.4754 131.548 14.4551 131.467 14.4551C131.312 14.4551 131.158 14.5161 131.003 14.6382C130.856 14.7521 130.686 14.9149 130.49 15.1265V21.0225C130.49 21.4456 130.547 21.7467 130.661 21.9258C130.783 22.1048 130.966 22.2188 131.21 22.2676C131.463 22.3083 131.898 22.3286 132.517 22.3286V23H125.961V22.3286H126.291C127.235 22.3286 127.707 21.9543 127.707 21.2056V15.7246C127.707 14.7887 127.125 14.1458 125.961 13.7959V13.3809L129.892 12.1235H130.49ZM128.11 15.7246V21.2788C128.11 21.5555 128.065 21.763 127.976 21.9014C127.886 22.0316 127.756 22.174 127.585 22.3286C128.049 22.2879 128.382 22.1659 128.586 21.9624C128.789 21.7508 128.891 21.3887 128.891 20.876V15.7246C128.891 15.0247 128.769 14.5161 128.525 14.1987C128.281 13.8813 127.894 13.7227 127.365 13.7227C127.325 13.7227 127.235 13.7308 127.097 13.7471C126.958 13.7633 126.865 13.7715 126.816 13.7715C127.679 14.1458 128.11 14.7969 128.11 15.7246ZM131.308 14.0034C131.528 14.0034 131.748 14.0767 131.967 14.2231C132.472 14.6219 132.895 14.8213 133.237 14.8213C133.66 14.8213 133.969 14.5487 134.165 14.0034C133.937 14.1174 133.77 14.1743 133.664 14.1743C133.42 14.1743 133.176 14.0929 132.932 13.9302C132.622 13.6779 132.366 13.5518 132.163 13.5518C131.967 13.5518 131.682 13.7023 131.308 14.0034ZM136.716 20.0459V13.1001H135.41V12.4775C136.126 11.9404 136.663 11.5295 137.021 11.2446C137.379 10.9517 137.717 10.6261 138.034 10.2681C138.36 9.90999 138.636 9.53564 138.864 9.14502H139.511V12.3311H142.539V13.1001H139.511V20.3999C139.511 20.937 139.576 21.3398 139.707 21.6084C139.837 21.8688 140.056 21.999 140.366 21.999C140.659 21.999 140.927 21.9176 141.171 21.7549C141.424 21.5921 141.729 21.3398 142.087 20.998L142.539 21.4741C141.928 22.1007 141.367 22.5687 140.854 22.8779C140.349 23.179 139.768 23.3296 139.108 23.3296C138.482 23.3296 137.993 23.1912 137.644 22.9146C137.294 22.6379 137.049 22.2635 136.911 21.7915C136.781 21.3114 136.716 20.7295 136.716 20.0459ZM137.912 11.0249L137.106 11.6963V19.8018C137.106 20.8841 137.245 21.6735 137.521 22.1699C137.806 22.6582 138.311 22.9023 139.035 22.9023C139.418 22.9023 139.8 22.8413 140.183 22.7192C139.442 22.7437 138.876 22.5728 138.486 22.2065C138.103 21.8322 137.912 21.2137 137.912 20.3511V11.0249Z" fill="white"/>
</svg>
